<svg xmlns="http://www.w3.org/2000/svg" width="1024" height="1024" viewBox="0 0 1024 1024">
  <rect x="80" y="80" width="864" height="864" rx="220" fill="#6366F1"/>
  <g transform="translate(256 256) scale(21.333333)">
    <path
      d="M4 16l4.586-4.586a2 2 0 0 1 2.828 0L16 16m-2-2 1.586-1.586a2 2 0 0 1 2.828 0L20 14m-6-6h.01M6 20h12a2 2 0 0 0 2-2V6a2 2 0 0 0-2-2H6a2 2 0 0 0-2 2v12a2 2 0 0 0 2 2Z"
      fill="none"
      stroke="#FFFFFF"
      stroke-width="2"
      stroke-linecap="round"
      stroke-linejoin="round"
    />
  </g>
</svg>
